<svg width="32" height="32" viewBox="0 0 32 32" fill="none" xmlns="http://www.w3.org/2000/svg">
<path d="M29.9466 7.99998C28.9199 8.46665 27.8132 8.77331 26.6666 8.91998C27.8399 8.21331 28.7466 7.09331 29.1732 5.74665C28.0666 6.41331 26.8399 6.87998 25.5466 7.14665C24.4932 5.99998 23.0132 5.33331 21.3332 5.33331C18.1999 5.33331 15.6399 7.89331 15.6399 11.0533C15.6399 11.5066 15.6932 11.9466 15.7866 12.36C11.0399 12.12 6.81322 9.83998 3.99989 6.38665C3.50656 7.22665 3.22656 8.21331 3.22656 9.25331C3.22656 11.24 4.22656 13 5.77322 14C4.82656 14 3.94656 13.7333 3.17322 13.3333V13.3733C3.17322 16.1466 5.14656 18.4666 7.75989 18.9866C6.92086 19.2163 6.04002 19.2482 5.18656 19.08C5.5487 20.2166 6.25794 21.2112 7.21458 21.9239C8.17122 22.6366 9.32715 23.0316 10.5199 23.0533C8.49806 24.6539 5.99188 25.5191 3.41322 25.5066C2.95989 25.5066 2.50656 25.48 2.05322 25.4266C4.58656 27.0533 7.59989 28 10.8266 28C21.3332 28 27.1066 19.28 27.1066 11.72C27.1066 11.4666 27.1066 11.2266 27.0932 10.9733C28.2132 10.1733 29.1732 9.15998 29.9466 7.99998Z" fill="#344154"/>
</svg>
